<svg width="24" height="24" viewBox="0 0 24 24" fill="none" xmlns="http://www.w3.org/2000/svg">
<path d="M15.8391 1.07344C15.2859 1.25156 14.8266 1.67812 14.5734 2.25C14.4797 2.47031 14.4609 2.58281 14.4609 3C14.4609 3.44062 14.475 3.52031 14.5922 3.76875C14.6625 3.92344 14.7938 4.13906 14.8875 4.25156L15.0516 4.45312H16.4719H17.8922L17.9531 4.33594C17.9859 4.27031 18.0328 4.21875 18.0563 4.21875C18.1219 4.21875 18.3609 3.68437 18.4219 3.39844C18.5859 2.60156 18.2156 1.72031 17.5359 1.29375C17.0766 1.00312 16.3594 0.909375 15.8391 1.07344Z" fill="#EC4096"/>
<path d="M15.0794 4.48608C15.1263 4.5189 15.2248 4.5939 15.2998 4.65015C15.6232 4.89858 16.1857 5.04858 16.6357 5.00171C16.9357 4.9689 17.4373 4.80015 17.4373 4.72983C17.4373 4.7064 17.4701 4.68765 17.5076 4.68765C17.5451 4.68765 17.5779 4.66421 17.5779 4.64077C17.5779 4.61265 17.606 4.5939 17.6388 4.5939C17.6669 4.5939 17.7373 4.56108 17.7841 4.52358C17.8638 4.46265 17.6998 4.45327 16.4341 4.4439C15.2857 4.43452 15.0138 4.43921 15.0794 4.48608Z" fill="#EC6B96"/>
<path d="M10.7812 5.09086C10.2656 5.23149 9.75935 5.6768 9.50154 6.22055C9.20154 6.86274 9.29529 7.6643 9.73123 8.25024C10.6828 9.51117 12.6562 9.22524 13.2234 7.7393C13.8 6.21117 12.375 4.6643 10.7812 5.09086Z" fill="#EC6B96"/>
<path d="M17.4791 5.55C16.8135 5.7375 16.4994 6.04687 15.7307 7.29375C14.8729 8.67656 14.6197 8.99531 13.9963 9.46406C13.4666 9.86719 12.6557 10.2281 11.9338 10.3828L11.7979 10.4109L11.9104 10.5281C12.2713 10.9172 13.0682 11.3719 13.6494 11.5266C14.3104 11.7047 14.3432 11.7 14.6994 11.4844C15.2338 11.1609 15.59 10.8891 16.026 10.4766L16.4385 10.0781L16.7291 11.5219C16.8838 12.3141 17.015 12.975 17.015 12.9891C17.015 13.0031 16.5416 13.4625 15.9604 14.0109L14.9057 15.0094V15.4922C14.9057 15.7547 14.9197 16.0687 14.9338 16.1906L14.9666 16.4062H16.0119H17.0572L17.2775 16.2047C17.3994 16.0969 17.7088 15.8062 17.9713 15.5531C18.6322 14.925 18.9932 14.6016 19.0213 14.6109C19.0354 14.6156 19.0869 14.7844 19.1338 14.9859C19.1807 15.1875 19.2744 15.5906 19.3447 15.8766L19.4666 16.4062H20.6104H21.7494L21.7213 16.2281C21.7072 16.1344 21.3604 14.3578 20.9479 12.2906C20.5354 10.2187 20.2025 8.50781 20.2119 8.48906C20.2213 8.47031 20.6104 8.60156 21.0791 8.78437L21.9369 9.11719V10.8141V12.5156H22.9447H23.9525L23.9432 10.1391L23.9291 7.75781L23.4604 7.56562C23.2025 7.45781 22.0869 6.98437 20.976 6.51562C19.8697 6.04219 18.8385 5.62031 18.6885 5.57344C18.3697 5.47031 17.8072 5.46094 17.4791 5.55Z" fill="#EC6B96"/>
<path d="M7.26992 8.65312C6.76836 8.78437 6.6043 8.92969 4.63555 10.9078C2.88242 12.675 2.72305 12.8437 2.60117 13.125C2.49336 13.3687 2.46523 13.5187 2.44648 13.875L2.42773 14.3203L2.7418 15.1875C2.91523 15.6609 3.08867 16.1297 3.13086 16.2281L3.21055 16.4062H4.43867H5.6668L5.68086 16.2984L5.69492 16.1953L5.80273 16.3031L5.90586 16.4062L7.37305 16.3969L8.83555 16.3828L7.85586 15.3844L6.87148 14.3859L8.01992 13.2375C8.64805 12.6094 9.17773 12.0984 9.1918 12.1031C9.21055 12.1125 9.44961 12.3375 9.73086 12.6047C10.7762 13.5984 11.723 14.1703 12.8668 14.5031C13.5512 14.7 14.9527 14.8641 14.9527 14.7469C14.9527 14.7187 14.9199 14.2734 14.8824 13.7578C14.8449 13.2422 14.8121 12.7828 14.8121 12.7359C14.8121 12.6703 14.7652 12.6562 14.5355 12.6562C13.7152 12.6562 12.5762 12.2531 11.8449 11.7C11.6949 11.5875 10.9965 10.9266 10.2934 10.2281C8.94805 8.89687 8.81211 8.78906 8.26367 8.64844C7.93086 8.55937 7.60273 8.56406 7.26992 8.65312Z" fill="#EC6B96"/>
<path d="M8.69043 16.2516L8.83105 16.4062H7.36387H5.90137L6.41699 16.9078L6.9373 17.4047V19.9547V22.5H7.94512H8.95293V19.4859V16.4719L8.75605 16.2891C8.61074 16.1531 8.59199 16.1437 8.69043 16.2516Z" fill="#EC9696"/>
<path d="M14.9156 19.2984L14.9062 22.5H15.9375H16.9734L16.9594 19.5047C16.9453 16.8844 16.9547 16.5 17.0156 16.4578C17.0625 16.425 16.7672 16.4109 16.0219 16.4109L14.9578 16.4062L14.9391 16.2516C14.9297 16.1719 14.9156 17.5406 14.9156 19.2984Z" fill="#EC9696"/>
<path d="M3.39375 16.9875L3.59531 17.5687L1.8 19.3641C0.810938 20.3531 0 21.1781 0 21.1969C0 21.2156 0.314063 21.5531 0.698438 21.9469L1.40156 22.6641L3.53438 20.5312L5.67188 18.3984V17.4047V16.4062H4.43438H3.19688L3.39375 16.9875Z" fill="#EC9696"/>
<path d="M19.4531 16.4484C19.4531 16.4766 19.4766 16.5094 19.5 16.5234C19.5281 16.5422 19.5375 16.5703 19.5234 16.5938C19.5094 16.6172 19.5188 16.7203 19.5422 16.8141C19.5703 16.9125 19.6359 17.1797 19.6875 17.4141C20.5875 21.45 20.8125 22.4531 20.8125 22.4719C20.8125 22.4859 21.3 22.5 21.8906 22.5C22.4859 22.5 22.9688 22.4953 22.9688 22.4859C22.9688 22.4578 21.7969 16.6219 21.7781 16.5469C21.7641 16.5094 21.7547 16.4625 21.7547 16.4391C21.75 16.3875 19.4531 16.3969 19.4531 16.4484Z" fill="#EC9696"/>
</svg>
