<svg width="20" height="20" viewBox="0 0 20 20" fill="none" xmlns="http://www.w3.org/2000/svg">
<path d="M15.8749 6.64915C15.629 6.12239 15.1841 5.71468 14.638 5.51549C14.0919 5.3163 13.489 5.34189 12.9617 5.58665C12.913 5.60915 12.8736 5.64602 12.8274 5.67165L11.4792 2.7729C11.4409 2.68971 11.3848 2.61596 11.3148 2.55687C11.2448 2.49778 11.1627 2.45478 11.0743 2.43093C10.9859 2.40708 10.8933 2.40296 10.8031 2.41885C10.7129 2.43474 10.6273 2.47026 10.5524 2.5229C9.43298 3.31227 8.43735 4.75352 7.46735 6.14602C6.91933 6.99914 6.29713 7.80225 5.60798 8.54602L5.58298 8.49102C5.54843 8.41619 5.49942 8.34893 5.43878 8.29312C5.37814 8.2373 5.30705 8.19403 5.22962 8.1658C5.15218 8.13757 5.06993 8.12493 4.98759 8.12862C4.90525 8.1323 4.82446 8.15224 4.74985 8.18727L1.91173 9.50602C1.7615 9.57593 1.64518 9.70263 1.58834 9.85827C1.5315 10.0139 1.53879 10.1858 1.6086 10.336L1.8661 10.8904C1.45494 11.0886 1.13847 11.4408 0.985315 11.8708C0.832164 12.3008 0.854679 12.7738 1.04798 13.1873L1.31423 13.761C1.50497 14.1764 1.85236 14.4994 2.2805 14.6595C2.70865 14.8196 3.18274 14.8037 3.59923 14.6154L3.85673 15.1691C3.89128 15.2437 3.94019 15.3106 4.00065 15.3662C4.06111 15.4218 4.13193 15.465 4.20908 15.4932C4.28622 15.5214 4.36817 15.5341 4.45024 15.5307C4.5323 15.5272 4.61288 15.5075 4.68735 15.4729L5.05548 15.3016L7.35173 18.0648C7.51874 18.2654 7.74736 18.4051 8.00202 18.4623C8.25669 18.5195 8.52311 18.4909 8.75985 18.381L9.7361 17.9279C9.90035 17.8516 10.0449 17.7386 10.1586 17.5977C10.2723 17.4567 10.3521 17.2915 10.3919 17.1148C10.4317 16.9382 10.4304 16.7547 10.3881 16.5786C10.3458 16.4025 10.2637 16.2385 10.148 16.0991L7.81235 13.2866L7.8036 13.2679C8.81635 13.2205 9.83131 13.2623 10.8367 13.3929C11.7917 13.4829 12.7649 13.5748 13.6699 13.5748C14.317 13.5895 14.9634 13.5223 15.5936 13.3748C15.6821 13.3516 15.7644 13.3093 15.8347 13.2509C15.9051 13.1924 15.9617 13.1193 16.0007 13.0365C16.0397 12.9538 16.06 12.8635 16.0603 12.7721C16.0606 12.6806 16.0408 12.5902 16.0024 12.5073L14.658 9.61352C14.7074 9.59477 14.7592 9.58477 14.808 9.56227C15.3354 9.31704 15.744 8.87256 15.944 8.32639C16.144 7.78022 16.1191 7.177 15.8749 6.64915ZM4.71485 9.58665L4.79298 9.75602L6.35548 13.1173L6.43423 13.2866L4.72673 14.0773L3.00798 10.3748L4.71485 9.58665ZM2.72423 13.4891C2.66361 13.4674 2.60794 13.4337 2.56051 13.3901C2.51307 13.3466 2.47481 13.294 2.44798 13.2354L2.1811 12.661C2.1276 12.5481 2.12019 12.4187 2.16044 12.3004C2.20069 12.1821 2.28545 12.0841 2.39673 12.0273L3.07173 13.4804C2.96099 13.5263 2.83714 13.5294 2.72423 13.4891ZM8.28048 17.2266L6.2286 14.7579L7.0786 14.3629L9.13048 16.8316L8.28048 17.2266ZM10.9542 12.1529C9.73066 11.9679 8.48766 11.9498 7.25923 12.0991L6.15235 9.71727C7.05893 8.87472 7.84695 7.91303 8.49485 6.85852C9.14166 5.85649 9.87532 4.91328 10.6874 4.03977L14.5242 12.2935C13.3324 12.3515 12.1378 12.3045 10.9542 12.1529ZM13.3517 6.8029C13.4587 6.73339 13.5788 6.68645 13.7045 6.66496C13.8303 6.64346 13.9591 6.64786 14.0831 6.67788C14.2071 6.70791 14.3237 6.76293 14.4257 6.83957C14.5277 6.91621 14.6129 7.01287 14.6763 7.12362C14.7396 7.23437 14.7797 7.35688 14.794 7.48366C14.8084 7.61043 14.7967 7.7388 14.7597 7.8609C14.7227 7.983 14.6612 8.09627 14.5789 8.19376C14.4966 8.29125 14.3953 8.37093 14.2811 8.4279C14.2321 8.44796 14.1815 8.46406 14.1299 8.47602L13.3517 6.8029ZM13.2267 3.6704L13.6011 1.99977C13.6402 1.8413 13.7397 1.7044 13.8784 1.61835C14.0171 1.53229 14.1839 1.5039 14.3433 1.53925C14.5026 1.57459 14.6418 1.67087 14.7311 1.8075C14.8204 1.94413 14.8527 2.11027 14.8211 2.2704L14.4505 3.94352C14.4198 4.08232 14.3427 4.20651 14.2319 4.29559C14.1211 4.38467 13.9833 4.43332 13.8411 4.43352C13.7953 4.43375 13.7495 4.42872 13.7049 4.41852C13.6244 4.40078 13.5483 4.36733 13.4809 4.32008C13.4134 4.27283 13.356 4.21272 13.3118 4.1432C13.2677 4.07368 13.2377 3.99612 13.2237 3.91498C13.2096 3.83384 13.2117 3.75072 13.2299 3.6704H13.2267ZM18.8517 11.0804C18.7766 11.228 18.6459 11.3398 18.4884 11.3911C18.3309 11.4425 18.1594 11.4292 18.0117 11.3541L16.4836 10.5766C16.4103 10.5395 16.3451 10.4882 16.2917 10.4258C16.2382 10.3634 16.1976 10.291 16.1721 10.2129C16.1467 10.1348 16.1369 10.0524 16.1433 9.97051C16.1497 9.88859 16.1722 9.80874 16.2095 9.73553C16.2468 9.66232 16.2982 9.59718 16.3607 9.54385C16.4232 9.49051 16.4956 9.45002 16.5738 9.4247C16.6519 9.39938 16.7343 9.38972 16.8162 9.39627C16.8981 9.40283 16.978 9.42547 17.0511 9.4629L18.5786 10.2404C18.6521 10.2772 18.7176 10.3282 18.7713 10.3903C18.8251 10.4525 18.8661 10.5247 18.8919 10.6027C18.9177 10.6807 18.9279 10.7631 18.9219 10.8451C18.9159 10.927 18.8937 11.007 18.8567 11.0804H18.8517ZM18.7561 5.88602L17.363 6.54415C17.213 6.61493 17.0411 6.62325 16.8851 6.56728C16.729 6.51131 16.6016 6.39564 16.5308 6.24571C16.46 6.09578 16.4517 5.92387 16.5077 5.76781C16.5636 5.61174 16.6793 5.4843 16.8292 5.41352L18.2224 4.75602C18.3716 4.68938 18.541 4.68386 18.6943 4.74064C18.8476 4.79742 18.9725 4.91199 19.0423 5.05978C19.1121 5.20757 19.1212 5.37683 19.0677 5.53128C19.0142 5.68573 18.9024 5.81308 18.7561 5.88602Z" fill="black" stroke="black" stroke-width="0.2"/>
</svg>
