<svg width="18" height="16" viewBox="0 0 18 16" fill="none" xmlns="http://www.w3.org/2000/svg">
<g clip-path="url(#clip0_22_21)">
<path d="M3.20752 3.81445C3.12442 3.81453 3.04216 3.83101 2.96545 3.86294C2.88873 3.89487 2.81906 3.94161 2.76045 4.00052C2.70184 4.05941 2.65544 4.12931 2.62389 4.20618C2.59234 4.28304 2.57626 4.36538 2.57659 4.44847C2.57676 4.61576 2.64328 4.77614 2.76156 4.89442C2.87985 5.0127 3.04023 5.07923 3.20752 5.0794H14.1725C14.8568 5.0794 15.3255 5.54103 15.3255 6.05529V7.15862C15.3251 7.24198 15.3413 7.32457 15.3731 7.40165C15.4048 7.47871 15.4515 7.54874 15.5105 7.60767C15.5694 7.66662 15.6394 7.71332 15.7165 7.74506C15.7936 7.7768 15.8761 7.79298 15.9595 7.79265C16.0426 7.79257 16.1249 7.77609 16.2016 7.74416C16.2783 7.71223 16.348 7.66548 16.4066 7.60657C16.4652 7.54767 16.5116 7.47778 16.5432 7.40091C16.5747 7.32404 16.5907 7.24171 16.5904 7.15862V6.05529C16.5904 4.78802 15.467 3.81445 14.1725 3.81445H3.20752Z" fill="white"/>
<path d="M14.1879 6.52783C13.2643 6.52783 12.5034 7.29187 12.5034 8.21546V9.48036C12.5034 10.404 13.2643 11.168 14.1879 11.168H15.9439C16.8675 11.168 17.6316 10.404 17.6316 9.48036V8.21546C17.6316 7.29187 16.8675 6.52783 15.9439 6.52783H14.1879ZM14.1879 7.79278H15.9439C16.1848 7.79278 16.3666 7.97448 16.3666 8.21546V9.48036C16.3666 9.72137 16.1848 9.9031 15.9439 9.9031H14.1879C13.9469 9.9031 13.7652 9.72137 13.7652 9.48036V8.21546C13.7652 7.97448 13.9469 7.79278 14.1879 7.79278Z" fill="white"/>
<path d="M8.7739 11.0032C8.60665 11.0033 8.44625 11.0699 8.32796 11.1882C8.20968 11.3065 8.14316 11.4668 8.14299 11.6342V14.9473C8.14316 15.1145 8.20968 15.2749 8.32796 15.3932C8.44625 15.5115 8.60665 15.578 8.7739 15.5782C8.94122 15.578 9.10156 15.5115 9.21987 15.3932C9.33811 15.2749 9.40463 15.1145 9.4048 14.9473V11.6342C9.40463 11.4668 9.33811 11.3065 9.21987 11.1882C9.10156 11.0699 8.94122 11.0033 8.7739 11.0032Z" fill="white"/>
<path d="M8.7739 11.0032C8.6907 11.0033 8.60825 11.0198 8.53149 11.0518C8.45468 11.0838 8.38496 11.1307 8.32633 11.1897L6.66046 12.8649C6.54237 12.9833 6.47605 13.1436 6.47605 13.3109C6.47605 13.4781 6.54237 13.6385 6.66046 13.7569C6.71913 13.8158 6.78888 13.8626 6.86568 13.8945C6.94249 13.9264 7.02483 13.9428 7.108 13.9428C7.19117 13.9428 7.27352 13.9264 7.35032 13.8945C7.42712 13.8626 7.49687 13.8158 7.55555 13.7569L9.22139 12.0817C9.28017 12.0228 9.32665 11.9529 9.35832 11.8759C9.38998 11.799 9.40606 11.7166 9.40581 11.6335C9.40547 11.5503 9.3888 11.468 9.35655 11.3913C9.32438 11.3146 9.27739 11.245 9.21827 11.1866C9.10004 11.0693 8.94038 11.0033 8.7739 11.0032Z" fill="white"/>
<path d="M8.77709 11.0032C8.69406 11.0028 8.61187 11.0188 8.53504 11.0503C8.45825 11.0818 8.38841 11.1281 8.32952 11.1865C8.27037 11.245 8.22336 11.3145 8.19117 11.3912C8.15899 11.4679 8.14226 11.5502 8.14196 11.6334C8.14167 11.7165 8.15781 11.799 8.18945 11.8759C8.22108 11.9528 8.2676 12.0227 8.32633 12.0816L9.99225 13.7568C10.0509 13.8157 10.1207 13.8626 10.1975 13.8945C10.2743 13.9263 10.3566 13.9427 10.4397 13.9427C10.5229 13.9427 10.6053 13.9263 10.6821 13.8945C10.7589 13.8626 10.8286 13.8157 10.8873 13.7568C11.0058 13.6388 11.0728 13.4787 11.0733 13.3115C11.0739 13.1442 11.0082 12.9836 10.8905 12.8648L9.22147 11.1896C9.10383 11.0711 8.944 11.0041 8.77709 11.0032Z" fill="white"/>
<path d="M1.4204 2.20777C1.25312 2.20793 1.09274 2.27445 0.974458 2.39273C0.856172 2.51101 0.789639 2.6714 0.789473 2.83867V11.684C0.789473 12.9513 1.91289 13.9217 3.20749 13.9217H5.00078C5.16806 13.9215 5.32844 13.855 5.44673 13.7367C5.56501 13.6185 5.63154 13.458 5.6317 13.2908C5.63154 13.1235 5.56501 12.9631 5.44673 12.8448C5.32844 12.7266 5.16806 12.6601 5.00078 12.6599H3.20749C2.5232 12.6599 2.05443 12.1982 2.05443 11.684V2.83867C2.05435 2.75558 2.03787 2.67333 2.00594 2.59662C1.97401 2.5199 1.92727 2.45024 1.86836 2.39163C1.80946 2.33302 1.73957 2.28661 1.6627 2.25505C1.58583 2.22351 1.50349 2.20744 1.4204 2.20777ZM15.9595 9.90309C15.8761 9.90275 15.7935 9.91892 15.7165 9.95067C15.6394 9.98241 15.5693 10.0291 15.5104 10.088C15.4515 10.147 15.4048 10.217 15.3731 10.2941C15.3413 10.3711 15.3251 10.4537 15.3255 10.5371V11.684C15.3255 12.1982 14.8567 12.6599 14.1724 12.6599H12.578C12.4108 12.6601 12.2504 12.7266 12.132 12.8448C12.0138 12.9631 11.9473 13.1235 11.9471 13.2908C11.9473 13.458 12.0138 13.6185 12.132 13.7367C12.2504 13.855 12.4108 13.9215 12.578 13.9217H14.1724C15.467 13.9217 16.5904 12.9513 16.5904 11.684V10.5371C16.5907 10.454 16.5746 10.3717 16.5431 10.2948C16.5116 10.2179 16.4652 10.1481 16.4066 10.0892C16.348 10.0302 16.2782 9.98351 16.2015 9.95159C16.1249 9.91968 16.0426 9.90317 15.9595 9.90309Z" fill="white"/>
<path d="M3.20749 0.60083C1.9138 0.600814 0.789473 1.57146 0.789473 2.83857C0.789473 4.10567 1.9138 5.07941 3.20749 5.07941C3.37478 5.07924 3.53515 5.01273 3.65343 4.89445C3.77171 4.77616 3.83824 4.61578 3.83841 4.4485C3.83873 4.36541 3.82266 4.28307 3.79111 4.20619C3.75955 4.12932 3.71314 4.05945 3.65453 4.00055C3.59592 3.94165 3.52626 3.89489 3.44956 3.86296C3.37284 3.83103 3.29059 3.81455 3.20749 3.81447C2.52821 3.81447 2.05443 3.34724 2.05443 2.83857C2.05443 2.3299 2.52821 1.86265 3.20749 1.86266H12.7583C13.198 1.86266 13.5415 2.20618 13.5415 2.64587V4.4485C13.5416 4.61578 13.6082 4.77616 13.7265 4.89445C13.8447 5.01273 14.0051 5.07924 14.1724 5.07941C14.2555 5.07974 14.3379 5.06367 14.4147 5.03211C14.4915 5.00057 14.5614 4.95416 14.6204 4.89555C14.6792 4.83694 14.726 4.76728 14.758 4.69056C14.7899 4.61386 14.8063 4.53159 14.8064 4.4485V2.64587C14.8064 1.52356 13.8806 0.60083 12.7583 0.60083H3.20749Z" fill="white"/>
</g>
<defs>
<clipPath id="clip0_22_21">
<rect width="17.6842" height="16" fill="white" transform="translate(0.157894)"/>
</clipPath>
</defs>
</svg>
