<svg width="18" height="16" viewBox="0 0 18 16" fill="none" xmlns="http://www.w3.org/2000/svg">
<g clip-path="url(#clip0_22_33)">
<path d="M3.20752 3.81445C3.12442 3.81453 3.04216 3.83101 2.96545 3.86294C2.88873 3.89487 2.81906 3.94161 2.76045 4.00052C2.70184 4.05941 2.65544 4.12931 2.62389 4.20618C2.59234 4.28304 2.57626 4.36538 2.57659 4.44847C2.57676 4.61576 2.64328 4.77614 2.76156 4.89442C2.87985 5.0127 3.04023 5.07923 3.20752 5.0794H14.1725C14.8568 5.0794 15.3255 5.54103 15.3255 6.05529V7.15862C15.3251 7.24198 15.3413 7.32457 15.3731 7.40165C15.4048 7.47871 15.4515 7.54874 15.5105 7.60767C15.5694 7.66662 15.6394 7.71332 15.7165 7.74506C15.7936 7.7768 15.8761 7.79298 15.9595 7.79265C16.0426 7.79257 16.1249 7.77609 16.2016 7.74416C16.2783 7.71223 16.348 7.66548 16.4066 7.60657C16.4652 7.54767 16.5116 7.47778 16.5432 7.40091C16.5747 7.32404 16.5907 7.24171 16.5904 7.15862V6.05529C16.5904 4.78802 15.467 3.81445 14.1725 3.81445H3.20752Z" fill="white"/>
<path d="M14.1879 6.52783C13.2643 6.52783 12.5034 7.29187 12.5034 8.21546V9.48036C12.5034 10.404 13.2643 11.168 14.1879 11.168H15.9439C16.8675 11.168 17.6316 10.404 17.6316 9.48036V8.21546C17.6316 7.29187 16.8675 6.52783 15.9439 6.52783H14.1879ZM14.1879 7.79278H15.9439C16.1848 7.79278 16.3666 7.97448 16.3666 8.21546V9.48036C16.3666 9.72137 16.1848 9.9031 15.9439 9.9031H14.1879C13.947 9.9031 13.7652 9.72137 13.7652 9.48036V8.21546C13.7652 7.97448 13.947 7.79278 14.1879 7.79278Z" fill="white"/>
<path d="M8.7739 11.0032C8.60665 11.0033 8.44625 11.0699 8.32796 11.1882C8.20968 11.3065 8.14316 11.4668 8.14299 11.6342V14.9473C8.14316 15.1145 8.20968 15.2749 8.32796 15.3932C8.44625 15.5115 8.60665 15.578 8.7739 15.5782C8.94122 15.578 9.10156 15.5115 9.21987 15.3932C9.33811 15.2749 9.40463 15.1145 9.4048 14.9473V11.6342C9.40463 11.4668 9.33811 11.3065 9.21987 11.1882C9.10156 11.0699 8.94122 11.0033 8.7739 11.0032Z" fill="white"/>
<path d="M8.77558 15.9429C8.85878 15.9428 8.94122 15.9263 9.01799 15.8943C9.0948 15.8623 9.16452 15.8154 9.22315 15.7563L10.889 14.0811C11.0071 13.9627 11.0734 13.8024 11.0734 13.6352C11.0734 13.4679 11.0071 13.3076 10.889 13.1892C10.8303 13.1302 10.7606 13.0834 10.6838 13.0516C10.607 13.0197 10.5246 13.0033 10.4415 13.0033C10.3583 13.0033 10.276 13.0197 10.1992 13.0516C10.1224 13.0834 10.0526 13.1302 9.99393 13.1892L8.32809 14.8644C8.26931 14.9233 8.22282 14.9931 8.19116 15.0701C8.1595 15.147 8.14341 15.2294 8.14367 15.3126C8.144 15.3958 8.16068 15.478 8.19293 15.5547C8.2251 15.6315 8.27209 15.701 8.3312 15.7595C8.44943 15.8768 8.6091 15.9427 8.77558 15.9429Z" fill="white"/>
<path d="M8.77227 15.9429C8.8553 15.9433 8.93749 15.9272 9.01433 15.8958C9.09112 15.8643 9.16096 15.818 9.21984 15.7595C9.27899 15.7011 9.32601 15.6315 9.35819 15.5548C9.39038 15.4781 9.40711 15.3958 9.40741 15.3126C9.4077 15.2295 9.39156 15.1471 9.35992 15.0702C9.32828 14.9932 9.28176 14.9233 9.22304 14.8645L7.55712 13.1893C7.4985 13.1303 7.42869 13.0835 7.35189 13.0516C7.27509 13.0197 7.19274 13.0033 7.10962 13.0033C7.02642 13.0033 6.94406 13.0197 6.86726 13.0516C6.79046 13.0835 6.72074 13.1303 6.66204 13.1893C6.54356 13.3072 6.47661 13.4673 6.47602 13.6346C6.47543 13.8018 6.5412 13.9624 6.65884 14.0812L8.32789 15.7564C8.44554 15.8749 8.60537 15.9419 8.77227 15.9429Z" fill="white"/>
<path d="M1.4204 2.20777C1.25312 2.20793 1.09274 2.27445 0.97446 2.39273C0.856173 2.51101 0.789641 2.6714 0.789474 2.83867V11.684C0.789474 12.9513 1.91289 13.9217 3.2075 13.9217H5.00078C5.16806 13.9215 5.32845 13.855 5.44673 13.7367C5.56501 13.6185 5.63154 13.458 5.63171 13.2908C5.63154 13.1235 5.56501 12.9631 5.44673 12.8448C5.32845 12.7266 5.16806 12.6601 5.00078 12.6599H3.2075C2.5232 12.6599 2.05443 12.1982 2.05443 11.684V2.83867C2.05435 2.75558 2.03787 2.67333 2.00594 2.59662C1.97401 2.5199 1.92727 2.45024 1.86836 2.39163C1.80947 2.33302 1.73957 2.28661 1.6627 2.25505C1.58584 2.22351 1.5035 2.20744 1.4204 2.20777ZM15.9595 9.90309C15.8761 9.90275 15.7935 9.91892 15.7165 9.95067C15.6394 9.98241 15.5693 10.0291 15.5104 10.088C15.4515 10.147 15.4048 10.217 15.3731 10.2941C15.3413 10.3711 15.3251 10.4537 15.3255 10.5371V11.684C15.3255 12.1982 14.8567 12.6599 14.1724 12.6599H12.578C12.4108 12.6601 12.2504 12.7266 12.132 12.8448C12.0138 12.9631 11.9473 13.1235 11.9471 13.2908C11.9473 13.458 12.0138 13.6185 12.132 13.7367C12.2504 13.855 12.4108 13.9215 12.578 13.9217H14.1724C15.467 13.9217 16.5904 12.9513 16.5904 11.684V10.5371C16.5907 10.454 16.5747 10.3717 16.5431 10.2948C16.5116 10.2179 16.4652 10.1481 16.4066 10.0892C16.348 10.0302 16.2782 9.98351 16.2015 9.95159C16.1249 9.91968 16.0426 9.90317 15.9595 9.90309Z" fill="white"/>
<path d="M3.2075 0.60083C1.9138 0.600814 0.789474 1.57146 0.789474 2.83857C0.789474 4.10567 1.9138 5.07941 3.2075 5.07941C3.37478 5.07924 3.53515 5.01273 3.65343 4.89445C3.77171 4.77616 3.83824 4.61578 3.83841 4.4485C3.83873 4.36541 3.82266 4.28307 3.79111 4.20619C3.75955 4.12932 3.71315 4.05945 3.65454 4.00055C3.59592 3.94165 3.52627 3.89489 3.44956 3.86296C3.37284 3.83103 3.29059 3.81455 3.2075 3.81447C2.52821 3.81447 2.05443 3.34724 2.05443 2.83857C2.05443 2.3299 2.52821 1.86265 3.2075 1.86266H12.7583C13.198 1.86266 13.5415 2.20618 13.5415 2.64587V4.4485C13.5416 4.61578 13.6082 4.77616 13.7265 4.89445C13.8447 5.01273 14.0051 5.07924 14.1724 5.07941C14.2555 5.07974 14.3379 5.06367 14.4147 5.03211C14.4915 5.00057 14.5614 4.95416 14.6204 4.89555C14.6792 4.83694 14.726 4.76728 14.758 4.69056C14.7899 4.61386 14.8063 4.53159 14.8064 4.4485V2.64587C14.8064 1.52356 13.8806 0.60083 12.7583 0.60083H3.2075Z" fill="white"/>
</g>
<defs>
<clipPath id="clip0_22_33">
<rect width="17.6842" height="16" fill="white" transform="translate(0.157898)"/>
</clipPath>
</defs>
</svg>
